{
  "accessors": [
    {
      "bufferView": 0,
      "byteOffset": 0,
      "componentType": 5123,
      "count": 249372,
      "max": [
        65533.0
      ],
      "min": [
        0.0
      ],
      "name": "buffer-0-group-0-mesh-0-indices",
      "type": "SCALAR"
    },
    {
      "bufferView": 1,
      "byteOffset": 0,
      "componentType": 5126,
      "count": 65534,
      "max": [
        12.910228729248047,
        -2.4803659915924072,
        107.87169647216797
      ],
      "min": [
        -84.228515625,
        -95.06842041015625,
        -33.082828521728516
      ],
      "name": "buffer-0-group-0-mesh-0-position",
      "type": "VEC3"
    },
    {
      "bufferView": 1,
      "byteOffset": 786408,
      "componentType": 5126,
      "count": 65534,
      "max": [
        0.9999733567237854,
        1.0,
        1.0
      ],
      "min": [
        -0.9999969005584717,
        -1.0,
        -1.0
      ],
      "name": "buffer-0-group-0-mesh-0-normal",
      "type": "VEC3"
    },
    {
      "bufferView": 2,
      "byteOffset": 0,
      "componentType": 5126,
      "count": 65534,
      "max": [
        1.0,
        1.0,
        1.0,
        1.0
      ],
      "min": [
        0.992156982421875,
        0.992156982421875,
        0.992156982421875,
        1.0
      ],
      "name": "buffer-0-group-0-mesh-0-color",
      "type": "VEC4"
    },
    {
      "bufferView": 0,
      "byteOffset": 498744,
      "componentType": 5123,
      "count": 232146,
      "max": [
        65533.0
      ],
      "min": [
        0.0
      ],
      "name": "buffer-0-group-0-mesh-1-indices",
      "type": "SCALAR"
    },
    {
      "bufferView": 1,
      "byteOffset": 1572816,
      "componentType": 5126,
      "count": 65534,
      "max": [
        12.8173828125,
        -2.7414369583129883,
        108.06819152832031
      ],
      "min": [
        -86.8301010131836,
        -95.3125228881836,
        -33.13538360595703
      ],
      "name": "buffer-0-group-0-mesh-1-position",
      "type": "VEC3"
    },
    {
      "bufferView": 1,
      "byteOffset": 2359224,
      "componentType": 5126,
      "count": 65534,
      "max": [
        0.9999913573265076,
        1.0,
        1.0
      ],
      "min": [
        -0.9999969005584717,
        -1.0,
        -1.0
      ],
      "name": "buffer-0-group-0-mesh-1-normal",
      "type": "VEC3"
    },
    {
      "bufferView": 2,
      "byteOffset": 1048544,
      "componentType": 5126,
      "count": 65534,
      "max": [
        1.0,
        1.0,
        1.0,
        1.0
      ],
      "min": [
        0.992156982421875,
        0.992156982421875,
        0.992156982421875,
        1.0
      ],
      "name": "buffer-0-group-0-mesh-1-color",
      "type": "VEC4"
    },
    {
      "bufferView": 0,
      "byteOffset": 963036,
      "componentType": 5123,
      "count": 197163,
      "max": [
        65533.0
      ],
      "min": [
        0.0
      ],
      "name": "buffer-0-group-0-mesh-2-indices",
      "type": "SCALAR"
    },
    {
      "bufferView": 1,
      "byteOffset": 3145632,
      "componentType": 5126,
      "count": 65534,
      "max": [
        12.21809196472168,
        -1.8138099908828735,
        108.06819152832031
      ],
      "min": [
        -85.43841552734375,
        -95.3125228881836,
        -33.12577438354492
      ],
      "name": "buffer-0-group-0-mesh-2-position",
      "type": "VEC3"
    },
    {
      "bufferView": 1,
      "byteOffset": 3932040,
      "componentType": 5126,
      "count": 65534,
      "max": [
        0.9999997615814209,
        1.0,
        1.0
      ],
      "min": [
        -0.9999997615814209,
        -1.0,
        -1.0
      ],
      "name": "buffer-0-group-0-mesh-2-normal",
      "type": "VEC3"
    },
    {
      "bufferView": 2,
      "byteOffset": 2097088,
      "componentType": 5126,
      "count": 65534,
      "max": [
        1.0,
        1.0,
        1.0,
        1.0
      ],
      "min": [
        0.992156982421875,
        0.992156982421875,
        0.992156982421875,
        1.0
      ],
      "name": "buffer-0-group-0-mesh-2-color",
      "type": "VEC4"
    },
    {
      "bufferView": 0,
      "byteOffset": 1357362,
      "componentType": 5123,
      "count": 176169,
      "max": [
        62061.0
      ],
      "min": [
        0.0
      ],
      "name": "buffer-0-group-0-mesh-3-indices",
      "type": "SCALAR"
    },
    {
      "bufferView": 1,
      "byteOffset": 4718448,
      "componentType": 5126,
      "count": 62062,
      "max": [
        12.34461498260498,
        -1.8138099908828735,
        108.03612518310547
      ],
      "min": [
        -86.8301010131836,
        -95.30535888671875,
        -33.13296890258789
      ],
      "name": "buffer-0-group-0-mesh-3-position",
      "type": "VEC3"
    },
    {
      "bufferView": 1,
      "byteOffset": 5463192,
      "componentType": 5126,
      "count": 62062,
      "max": [
        1.0,
        1.0,
        1.0
      ],
      "min": [
        -0.9999969005584717,
        -1.0,
        -1.0
      ],
      "name": "buffer-0-group-0-mesh-3-normal",
      "type": "VEC3"
    },
    {
      "bufferView": 2,
      "byteOffset": 3145632,
      "componentType": 5126,
      "count": 62062,
      "max": [
        1.0,
        1.0,
        1.0,
        1.0
      ],
      "min": [
        0.992156982421875,
        0.9960780143737793,
        0.9960780143737793,
        1.0
      ],
      "name": "buffer-0-group-0-mesh-3-color",
      "type": "VEC4"
    }
  ],
  "asset": {
    "generator": "Obj2GltfConverter",
    "version": "2.0"
  },
  "bufferViews": [
    {
      "buffer": 0,
      "byteLength": 1709700,
      "byteOffset": 0,
      "name": "buffer-0-bufferview-ushort",
      "target": 34963
    },
    {
      "buffer": 0,
      "byteLength": 6207936,
      "byteOffset": 1709700,
      "byteStride": 12,
      "name": "buffer-0-bufferview-vec3",
      "target": 34962
    },
    {
      "buffer": 0,
      "byteLength": 4138624,
      "byteOffset": 7917648,
      "byteStride": 16,
      "name": "buffer-0-bufferview-vec4",
      "target": 34962
    }
  ],
  "buffers": [
    {
      "byteLength": 12056272,
      "name": "buffer-0",
      "uri": "melinda2.bin"
    }
  ],
  "materials": [
    {
      "alphaMode": "OPAQUE",
      "doubleSided": true,
      "name": "",
      "pbrMetallicRoughness": {
        "baseColorFactor": [
          1.0,
          1.0,
          1.0,
          1.0
        ],
        "metallicFactor": 0.0,
        "roughnessFactor": 0.9699476628648295
      }
    }
  ],
  "meshes": [
    {
      "name": "buffer-0-mesh-0",
      "primitives": [
        {
          "attributes": {
            "POSITION": 1,
            "NORMAL": 2,
            "COLOR_0": 3
          },
          "indices": 0,
          "material": 0,
          "mode": 4
        },
        {
          "attributes": {
            "POSITION": 5,
            "NORMAL": 6,
            "COLOR_0": 7
          },
          "indices": 4,
          "material": 0,
          "mode": 4
        },
        {
          "attributes": {
            "POSITION": 9,
            "NORMAL": 10,
            "COLOR_0": 11
          },
          "indices": 8,
          "material": 0,
          "mode": 4
        },
        {
          "attributes": {
            "POSITION": 13,
            "NORMAL": 14,
            "COLOR_0": 15
          },
          "indices": 12,
          "material": 0,
          "mode": 4
        }
      ]
    }
  ],
  "nodes": [
    {
      "mesh": 0,
      "name": "node-0"
    }
  ],
  "scenes": [
    {
      "name": "scene-0",
      "nodes": [
        0
      ]
    }
  ]
}